<svg version="1.1" preserveAspectRatio="none" xmlns="http://www.w3.org/2000/svg" width="500" height="500" viewBox="0 0 500 500"><rect width="100%" height="100%" fill="#FFFFFF" fill-opacity="1"/><svg viewBox="-76.9412 65.993 448.5338 176" width="333" height="130.6657380112714" x="83.5px" y="184.6671px" xmlns="http://www.w3.org/2000/svg" xmlns:xlink="http://www.w3.org/1999/xlink" preserveAspectRatio="none"><defs></defs><style>.background {fill:#FFFFFF;fill-opacity:1;}.companyName {fill:#5C6D47;fill-opacity:1;}.icon3 {fill:#EBD4C0;fill-opacity:1;}.icon3-str {stroke:#EBD4C0;stroke-opacity:1;}.shapeStroke-str {stroke:#EBD4C0;stroke-opacity:1;}</style><g opacity="1" transform="rotate(0 -76.9412 65.993)">
<svg width="226.2669" height="176" x="-76.9412" y="65.993" version="1.1" preserveAspectRatio="none" viewBox="0 0 226.2669 176">
  <defs><rect x="0" y="0" width="226.2669" height="176" rx="0px" ry="0px" id="id-60p5ZquTE1716102204260"></rect></defs><use class="companyName shapeStroke-str" style="stroke-width:0;" xlink:href="#id-60p5ZquTE1716102204260"></use>
</svg>
</g><g opacity="1" transform="rotate(0 147.3257 65.993)">
<svg width="224.2669" height="176" x="147.3257" y="65.993" version="1.1" preserveAspectRatio="none" viewBox="0 0 224.2669 176">
  <defs><rect x="0" y="0" width="224.2669" height="176" rx="0px" ry="0px" id="id-hs7pIl34o1716102204260"></rect></defs><use class="icon3 shapeStroke-str" style="stroke-width:0;" xlink:href="#id-hs7pIl34o1716102204260"></use>
</svg>
</g><g opacity="1" transform="rotate(0 41.9342 167.993)">
<svg width="210.783" height="14" x="41.9342" y="167.993" version="1.1" preserveAspectRatio="none" viewBox="-0.36 -28.48 436.00000000000006 28.96">
  <g transform="matrix(1 0 0 1 0 0)" class="background"><path id="id-6izo4zJp13" d="M24.24 0L21.76-6L8.76-6L6.28 0L-0.36 0L12.12-28L18.52-28L31.04 0L24.24 0ZM10.84-10.92L19.72-10.92L15.28-21.64L10.84-10.92Z M62.52-14.56Q64.92-13.80 66.28-12.02Q67.64-10.24 67.64-7.64L67.64-7.64Q67.64-3.96 64.78-1.98Q61.92 0 56.44 0L56.44 0L41.96 0L41.96-28L55.64-28Q60.76-28 63.50-26.04Q66.24-24.08 66.24-20.72L66.24-20.72Q66.24-18.68 65.26-17.08Q64.28-15.48 62.52-14.56L62.52-14.56ZM54.84-23.12L48.40-23.12L48.40-16.52L54.84-16.52Q57.24-16.52 58.48-17.36Q59.72-18.20 59.72-19.84L59.72-19.84Q59.72-21.48 58.48-22.30Q57.24-23.12 54.84-23.12L54.84-23.12ZM55.96-4.88Q58.52-4.88 59.82-5.72Q61.12-6.56 61.12-8.32L61.12-8.32Q61.12-11.80 55.96-11.80L55.96-11.80L48.40-11.80L48.40-4.88L55.96-4.88Z M94.12 0.48Q89.76 0.48 86.26-1.40Q82.76-3.28 80.78-6.58Q78.80-9.88 78.80-14L78.80-14Q78.80-18.12 80.78-21.42Q82.76-24.72 86.26-26.60Q89.76-28.48 94.12-28.48L94.12-28.48Q98.48-28.48 101.96-26.60Q105.44-24.72 107.44-21.42Q109.44-18.12 109.44-14L109.44-14Q109.44-9.88 107.44-6.58Q105.44-3.28 101.96-1.40Q98.48 0.48 94.12 0.48L94.12 0.48ZM94.12-5.04Q96.60-5.04 98.60-6.18Q100.60-7.32 101.74-9.36Q102.88-11.40 102.88-14L102.88-14Q102.88-16.60 101.74-18.64Q100.60-20.68 98.60-21.82Q96.60-22.96 94.12-22.96L94.12-22.96Q91.64-22.96 89.64-21.82Q87.64-20.68 86.50-18.64Q85.36-16.60 85.36-14L85.36-14Q85.36-11.40 86.50-9.36Q87.64-7.32 89.64-6.18Q91.64-5.04 94.12-5.04L94.12-5.04Z M134.76 0.48Q128.76 0.48 125.42-2.84Q122.08-6.16 122.08-12.32L122.08-12.32L122.08-28L128.56-28L128.56-12.56Q128.56-5.04 134.80-5.04L134.80-5.04Q137.84-5.04 139.44-6.86Q141.04-8.68 141.04-12.56L141.04-12.56L141.04-28L147.44-28L147.44-12.32Q147.44-6.16 144.10-2.84Q140.76 0.48 134.76 0.48L134.76 0.48Z M167.16 0L167.16-22.72L158.20-22.72L158.20-28L182.60-28L182.60-22.72L173.64-22.72L173.64 0L167.16 0Z M244.96 0L238.88 0L238.84-16.80L230.60-2.96L227.68-2.96L219.48-16.44L219.48 0L213.40 0L213.40-28L218.76-28L229.24-10.60L239.56-28L244.88-28L244.96 0Z M283.92-28L273.04-9.92L273.04 0L266.56 0L266.56-10L255.72-28L262.60-28L270.08-15.56L277.56-28L283.92-28Z M323.16 0.48Q319.84 0.48 316.74-0.42Q313.64-1.32 311.76-2.76L311.76-2.76L313.96-7.64Q315.76-6.32 318.24-5.52Q320.72-4.72 323.20-4.72L323.20-4.72Q325.96-4.72 327.28-5.54Q328.60-6.36 328.60-7.72L328.60-7.72Q328.60-8.72 327.82-9.38Q327.04-10.04 325.82-10.44Q324.60-10.84 322.52-11.32L322.52-11.32Q319.32-12.08 317.28-12.84Q315.24-13.60 313.78-15.28Q312.32-16.96 312.32-19.76L312.32-19.76Q312.32-22.20 313.64-24.18Q314.96-26.16 317.62-27.32Q320.28-28.48 324.12-28.48L324.12-28.48Q326.80-28.48 329.36-27.84Q331.92-27.20 333.84-26L333.84-26L331.84-21.08Q327.96-23.28 324.08-23.28L324.08-23.28Q321.36-23.28 320.06-22.40Q318.76-21.52 318.76-20.08L318.76-20.08Q318.76-18.64 320.26-17.94Q321.76-17.24 324.84-16.56L324.84-16.56Q328.04-15.80 330.08-15.04Q332.12-14.28 333.58-12.64Q335.04-11 335.04-8.20L335.04-8.20Q335.04-5.80 333.70-3.82Q332.36-1.84 329.68-0.68Q327.00 0.48 323.16 0.48L323.16 0.48Z M353.92-5.20L369.16-5.20L369.16 0L347.48 0L347.48-28L368.64-28L368.64-22.80L353.92-22.80L353.92-16.72L366.92-16.72L366.92-11.68L353.92-11.68L353.92-5.20Z M382.32 0L382.32-28L388.80-28L388.80-5.28L402.84-5.28L402.84 0L382.32 0Z M435.64-22.80L420.96-22.80L420.96-15.40L433.92-15.40L433.92-10.20L420.96-10.20L420.96 0L414.48 0L414.48-28L435.64-28L435.64-22.80Z"/></g>
</svg>
</g><g opacity="1" transform="rotate(0 -26.9412 125.993)">
<svg width="348.5338" height="24" x="-26.9412" y="125.993" version="1.1" preserveAspectRatio="none" viewBox="0.3516 -30.6641 458.92569999999995 31.6016">
  <g transform="matrix(1 0 0 1 0 0)" class="background"><path id="id-D6z1nYkh15" d="M32.03-19.65L32.03-19.65Q30.10-19.65 29.34-21.48L29.34-21.48Q26.52-21.48 23.16-20.12L23.16-20.12Q21.07-19.26 20.35-18.54Q19.63-17.81 19.58-17.40Q19.53-16.99 19.98-16.71Q20.43-16.43 21.24-16.17Q22.05-15.92 23.13-15.66L23.13-15.66Q28.75-14.36 30.25-13.85L30.25-13.85Q33.24-12.85 34.73-11.66L34.73-11.66Q36.13-10.47 36.13-8.42L36.13-8.42Q36.13-6.72 35.09-5.55Q34.04-4.38 32.32-3.46Q30.61-2.54 28.49-1.83Q26.37-1.11 24.01-0.61Q21.66-0.10 19.38 0.23L19.38 0.23Q14.90 0.86 11.74 0.86L11.74 0.86Q5.98 0.86 2.85-0.53L2.85-0.53Q1.68-1.05 0.94-3.16L0.94-3.16Q0.35-4.90 0.35-6.03Q0.35-7.15 0.55-7.27Q0.74-7.38 1.35-7.28Q1.95-7.17 2.93-6.91L2.93-6.91L5.27-6.29Q10.72-4.92 16.80-4.92L16.80-4.92Q21.27-4.92 24.38-5.72L24.38-5.72Q26.21-6.21 26.33-6.82L26.33-6.82Q26.41-7.34 23.44-8.13L23.44-8.13Q22.09-8.50 20.31-8.91L20.31-8.91Q11.70-11.00 9.92-11.60Q8.14-12.21 7.61-12.68Q7.07-13.14 6.72-13.71L6.72-13.71Q6.07-14.82 6.07-15.83Q6.07-16.84 6.18-17.38Q6.29-17.93 6.48-18.40L6.48-18.40Q6.89-19.36 7.52-19.71L7.52-19.71Q12.54-22.52 22.27-24.65L22.27-24.65Q30.92-26.56 36.50-26.56L36.50-26.56Q37.64-26.56 38.20-26.17L38.20-26.17Q39.18-25.45 39.06-24.63Q38.95-23.81 38.56-23.12Q38.18-22.42 37.62-21.87Q37.05-21.31 36.36-20.89Q35.66-20.47 34.92-20.20L34.92-20.20Q33.44-19.65 32.03-19.65Z M60.63-12.03L60.63-12.03Q60.63-10.98 62.42-10.98L62.42-10.98Q63.75-10.98 65.90-12.27L65.90-12.27L67.46-13.13Q68.18-13.54 68.72-13.54Q69.26-13.54 69.57-13.20Q69.88-12.87 69.88-12.29Q69.88-11.70 69.49-10.93Q69.10-10.16 68.42-9.31Q67.73-8.46 66.82-7.63Q65.90-6.80 64.84-6.13L64.84-6.13Q62.50-4.67 60.49-4.67L60.49-4.67Q58.36-4.67 57.09-5.39L57.09-5.39Q56.70-5.63 56.33-5.88L56.33-5.88Q54.24-3.50 50.27-1.50L50.27-1.50Q46.05 0.61 42.91 0.61L42.91 0.61Q39.61 0.61 37.70-1.99L37.70-1.99Q36.15-4.10 36.15-6.27L36.15-6.27Q36.15-9.39 39.49-12.23L39.49-12.23Q41.95-14.30 44.25-15.37Q46.54-16.45 48.40-17.03L48.40-17.03Q52.32-18.26 55.47-18.26L55.47-18.26Q56.88-18.26 57.98-17.72Q59.08-17.19 59.61-16.64L59.61-16.64Q60.86-15.41 60.86-13.50L60.86-13.50Q60.86-12.93 60.74-12.62Q60.63-12.30 60.63-12.03ZM44.65-8.34L44.65-8.34L44.63-8.28L44.63-8.26Q44.63-7.42 45-7.17L45-7.17Q45.90-6.62 46.89-6.88Q47.89-7.15 48.79-7.54L48.79-7.54Q51.02-8.50 52.81-9.96L52.81-9.96Q52.50-10.59 52.50-11.25L52.50-11.25Q52.50-12.66 53.73-14.06L53.73-14.06Q52.17-14.06 49.51-12.60L49.51-12.60Q46.58-10.98 45.12-9.26L45.12-9.26Q44.65-8.67 44.65-8.34Z M74.59-12.64L74.59-12.64Q74.59-11.93 75.12-11.93L75.12-11.93Q75.76-11.93 76.78-12.79L76.78-12.79L78.48-14.26Q81.17-16.58 83.61-16.58L83.61-16.58Q85.20-16.58 86.43-13.95L86.43-13.95Q87.50-11.68 88.36-7.19L88.36-7.19Q88.52-6.45 88.62-6.45Q88.73-6.45 89.19-6.80Q89.65-7.15 90.31-7.70L90.31-7.70Q95.10-11.78 95.85-12.26Q96.60-12.73 96.89-12.90Q97.19-13.07 97.50-13.20L97.50-13.20Q98.28-13.50 98.73-13.50L98.73-13.50Q99.59-13.50 99.59-12.60L99.59-12.60Q99.59-11.23 97.79-8.61L97.79-8.61Q95.78-5.68 92.46-2.77L92.46-2.77Q88.59 0.64 85.70 0.64L85.70 0.64Q82.66 0.64 81.60-3.46L81.60-3.46Q81.33-4.51 81.17-5.43L81.17-5.43L80.88-6.95Q80.76-7.56 80.58-7.56Q80.39-7.56 79.80-6.97L79.80-6.97L78.36-5.51Q75.94-3.05 74.30-1.91L74.30-1.91Q71.00 0.39 68.52 0.39L68.52 0.39Q65.55 0.39 65.02-2.62L65.02-2.62Q64.86-3.52 64.86-4.89Q64.86-6.27 65.25-8.26Q65.64-10.25 66.33-12.25L66.33-12.25Q67.81-16.50 70.02-19.51L70.02-19.51L71.76-21.82Q78.07-30.06 82.30-30.06L82.30-30.06Q83.26-30.06 83.69-29.12L83.69-29.12Q83.83-28.83 83.83-28.24Q83.83-27.66 83.32-26.73Q82.81-25.80 82.07-24.80Q81.33-23.81 80.48-22.78Q79.63-21.76 78.93-20.76L78.93-20.76L77.46-18.63Q74.59-14.32 74.59-12.64Z M130.31-14.67L130.31-14.67Q130.94-14.67 130.94-13.61L130.94-13.61Q130.94-11.80 128.40-8.91L128.40-8.91L127.29-7.77Q122.23-2.71 117.75-1.04L117.75-1.04Q114.98 0 113.77-1.13L113.77-1.13Q112.77-2.09 112.19-4.22L112.19-4.22L111.72-5.92L107.56-3.36L105.16-1.99Q100.86 0.35 98.71 0.35L98.71 0.35Q95.96 0.35 94.12-1.78L94.12-1.78Q92.36-3.79 92.36-6.45L92.36-6.45Q92.36-9.06 94.45-11.11L94.45-11.11Q97.44-14.04 103.89-16.48L103.89-16.48Q109.98-18.77 113.73-18.77L113.73-18.77Q115-18.77 115-17.52L115-17.52Q115-16.66 114.67-16.23Q114.34-15.80 113.30-15.35L113.30-15.35L110.84-14.30Q105.37-12.01 102.83-9.55L102.83-9.55Q102.11-8.87 102.11-8.22Q102.11-7.58 103.14-7.58L103.14-7.58Q104.16-7.58 107.87-9.77L107.87-9.77L109.49-10.72Q113.26-12.99 115.80-12.99L115.80-12.99Q117.95-12.99 118.65-11.09L118.65-11.09Q118.83-10.59 118.98-10.07Q119.14-9.55 119.30-9.14L119.30-9.14Q119.65-8.18 119.93-8.18Q120.21-8.18 120.74-8.47Q121.27-8.75 121.90-9.19Q122.54-9.63 123.22-10.16L123.22-10.16L125.59-12.05Q128.73-14.67 130.31-14.67Z M148.01-10.49L148.01-10.49Q148.01-8.71 149.04-8.71L149.04-8.71Q151.58-8.71 155.64-12.15L155.64-12.15L156.17-12.60Q157.75-13.65 158.74-13.65Q159.73-13.65 159.99-13.36Q160.25-13.07 160.25-12.42L160.25-12.42Q160.25-10.98 158.79-9.36L158.79-9.36Q156.60-6.70 152.79-4.32L152.79-4.32Q148.38-1.54 144.88-1.54L144.88-1.54Q142.44-1.54 141.82-4.26L141.82-4.26Q141.64-4.96 141.56-5.61L141.56-5.61Q141.37-7.17 141.15-7.34Q140.94-7.52 140.30-7.31Q139.67-7.11 138.80-6.63Q137.93-6.15 136.88-5.47L136.88-5.47Q131.29-1.76 130.45-1.23L130.45-1.23Q128.44 0.02 127.73 0.02Q127.03 0.02 126.36-0.27Q125.68-0.57 125.18-1.02L125.18-1.02Q124.12-2.01 124.12-3.05L124.12-3.05Q124.12-8.96 126.70-13.40L126.70-13.40Q128.42-16.39 130.92-17.54L130.92-17.54Q132.19-18.14 133.65-18.14L133.65-18.14Q136.33-18.14 136.33-16.39L136.33-16.39Q136.33-15.31 135.06-12.87L135.06-12.87L134.47-11.72Q133.85-10.53 133.87-10.37L133.87-10.37Q133.98-9.79 134.39-9.79L134.39-9.79Q134.84-9.79 135.72-10.45L135.72-10.45L139.32-13.13L141.11-14.38Q144.22-16.41 145.68-16.41L145.68-16.41Q146.46-16.41 147.11-15.78L147.11-15.78Q148.30-14.65 148.30-13.81L148.30-13.81Q148.30-13.54 148.25-13.14Q148.20-12.75 148.14-12.30L148.14-12.30L148.07-11.39Q148.01-10.92 148.01-10.49Z M204.82-19.65L204.82-19.65Q202.89-19.65 202.13-21.48L202.13-21.48Q199.32-21.48 195.96-20.12L195.96-20.12Q193.87-19.26 193.14-18.54Q192.42-17.81 192.37-17.40Q192.32-16.99 192.77-16.71Q193.22-16.43 194.03-16.17Q194.84-15.92 195.92-15.66L195.92-15.66Q201.54-14.36 203.05-13.85L203.05-13.85Q206.04-12.85 207.52-11.66L207.52-11.66Q208.93-10.47 208.93-8.42L208.93-8.42Q208.93-6.72 207.88-5.55Q206.84-4.38 205.12-3.46Q203.40-2.54 201.28-1.83Q199.16-1.11 196.81-0.61Q194.45-0.10 192.17 0.23L192.17 0.23Q187.70 0.86 184.53 0.86L184.53 0.86Q178.77 0.86 175.64-0.53L175.64-0.53Q174.47-1.05 173.73-3.16L173.73-3.16Q173.14-4.90 173.14-6.03Q173.14-7.15 173.34-7.27Q173.54-7.38 174.14-7.28Q174.75-7.17 175.72-6.91L175.72-6.91L178.07-6.29Q183.52-4.92 189.59-4.92L189.59-4.92Q194.06-4.92 197.17-5.72L197.17-5.72Q199.00-6.21 199.12-6.82L199.12-6.82Q199.20-7.34 196.23-8.13L196.23-8.13Q194.88-8.50 193.11-8.91L193.11-8.91Q184.49-11.00 182.71-11.60Q180.94-12.21 180.40-12.68Q179.86-13.14 179.51-13.71L179.51-13.71Q178.87-14.82 178.87-15.83Q178.87-16.84 178.97-17.38Q179.08-17.93 179.28-18.40L179.28-18.40Q179.69-19.36 180.31-19.71L180.31-19.71Q185.33-22.52 195.06-24.65L195.06-24.65Q203.71-26.56 209.30-26.56L209.30-26.56Q210.43-26.56 211.00-26.17L211.00-26.17Q211.97-25.45 211.86-24.63Q211.74-23.81 211.36-23.12Q210.98-22.42 210.41-21.87Q209.84-21.31 209.15-20.89Q208.46-20.47 207.71-20.20L207.71-20.20Q206.23-19.65 204.82-19.65Z M246.64-14.67L246.64-14.67Q247.27-14.67 247.27-13.61L247.27-13.61Q247.27-11.80 244.73-8.91L244.73-8.91L243.61-7.77Q238.55-2.71 234.08-1.04L234.08-1.04Q231.31 0 230.10-1.13L230.10-1.13Q229.10-2.09 228.52-4.22L228.52-4.22L228.05-5.92L223.89-3.36L221.48-1.99Q217.19 0.35 215.04 0.35L215.04 0.35Q212.29 0.35 210.45-1.78L210.45-1.78Q208.69-3.79 208.69-6.45L208.69-6.45Q208.69-9.06 210.78-11.11L210.78-11.11Q213.77-14.04 220.21-16.48L220.21-16.48Q226.31-18.77 230.06-18.77L230.06-18.77Q231.33-18.77 231.33-17.52L231.33-17.52Q231.33-16.66 231.00-16.23Q230.66-15.80 229.63-15.35L229.63-15.35L227.17-14.30Q221.70-12.01 219.16-9.55L219.16-9.55Q218.44-8.87 218.44-8.22Q218.44-7.58 219.47-7.58L219.47-7.58Q220.49-7.58 224.20-9.77L224.20-9.77L225.82-10.72Q229.59-12.99 232.13-12.99L232.13-12.99Q234.28-12.99 234.98-11.09L234.98-11.09Q235.16-10.59 235.31-10.07Q235.47-9.55 235.63-9.14L235.63-9.14Q235.98-8.18 236.26-8.18Q236.54-8.18 237.07-8.47Q237.60-8.75 238.23-9.19Q238.87-9.63 239.55-10.16L239.55-10.16L241.91-12.05Q245.06-14.67 246.64-14.67Z M275.90-14.43L275.90-14.43Q276.78-14.43 276.78-13.54L276.78-13.54Q276.78-12.11 274.90-9.51L274.90-9.51Q273.59-7.70 269.51-4.47L269.51-4.47Q264.65-0.66 261.70-0.66L261.70-0.66Q259.47-0.66 258.34-2.54L258.34-2.54Q257.66-3.67 257.23-5.86L257.23-5.86L255.49-4.61Q248.32 0.35 244.79 0.35L244.79 0.35Q241.84 0.35 240.06-1.80L240.06-1.80Q238.50-3.73 238.50-6.43L238.50-6.43Q238.50-9.39 240.53-11.11L240.53-11.11Q244.67-14.59 250.82-16.84L250.82-16.84Q253.32-17.75 253.98-17.75Q254.65-17.75 255.21-17.53Q255.76-17.30 256.31-16.95L256.31-16.95Q257.60-16.07 257.60-15.25L257.60-15.25Q257.60-14.59 256.78-14.18L256.78-14.18Q256.52-14.04 255.92-13.81Q255.31-13.57 254.43-13.16L254.43-13.16Q252.07-12.05 249.82-10.47L249.82-10.47Q248.22-9.10 248.22-8.29Q248.22-7.48 249.36-7.48L249.36-7.48Q250.29-7.48 253.11-9.14L253.11-9.14Q253.11-9.14 254.77-10.16L254.77-10.16Q256.54-11.27 257.62-12.19L257.62-12.19Q257.62-12.19 258.52-15.12L258.52-15.12Q260.18-20.35 262.21-23.77L262.21-23.77Q265.80-30.66 269.43-30.66L269.43-30.66Q270.76-30.66 271.54-30.18L271.54-30.18Q272.95-29.30 272.95-28.23Q272.95-27.17 272.56-25.98Q272.17-24.79 271.53-23.61Q270.90-22.44 270.08-21.29L270.08-21.29L266.74-16.88Q265.90-15.80 265.25-14.79L265.25-14.79Q264.12-12.34 264.12-10.61L264.12-10.61Q264.12-8.11 265.94-8.11L265.94-8.11Q266.97-8.11 269.67-10.27L269.67-10.27L271.97-12.23Q273.59-13.67 275.18-14.26L275.18-14.26Q275.63-14.43 275.90-14.43Z M280.59-12.64L280.59-12.64Q280.59-11.93 281.11-11.93L281.11-11.93Q281.76-11.93 282.77-12.79L282.77-12.79L284.47-14.26Q287.17-16.58 289.61-16.58L289.61-16.58Q291.19-16.58 292.42-13.95L292.42-13.95Q293.50-11.68 294.36-7.19L294.36-7.19Q294.51-6.45 294.62-6.45Q294.73-6.45 295.19-6.80Q295.64-7.15 296.31-7.70L296.31-7.70Q301.09-11.78 301.85-12.26Q302.60-12.73 302.89-12.90Q303.18-13.07 303.50-13.20L303.50-13.20Q304.28-13.50 304.73-13.50L304.73-13.50Q305.59-13.50 305.59-12.60L305.59-12.60Q305.59-11.23 303.79-8.61L303.79-8.61Q301.78-5.68 298.46-2.77L298.46-2.77Q294.59 0.64 291.70 0.64L291.70 0.64Q288.65 0.64 287.60-3.46L287.60-3.46Q287.32-4.51 287.17-5.43L287.17-5.43L286.88-6.95Q286.76-7.56 286.57-7.56Q286.39-7.56 285.80-6.97L285.80-6.97L284.36-5.51Q281.93-3.05 280.29-1.91L280.29-1.91Q276.99 0.39 274.51 0.39L274.51 0.39Q271.54 0.39 271.02-2.62L271.02-2.62Q270.86-3.52 270.86-4.89Q270.86-6.27 271.25-8.26Q271.64-10.25 272.32-12.25L272.32-12.25Q273.81-16.50 276.02-19.51L276.02-19.51L277.75-21.82Q284.06-30.06 288.30-30.06L288.30-30.06Q289.26-30.06 289.69-29.12L289.69-29.12Q289.82-28.83 289.82-28.24Q289.82-27.66 289.32-26.73Q288.81-25.80 288.07-24.80Q287.32-23.81 286.47-22.78Q285.63-21.76 284.92-20.76L284.92-20.76L283.46-18.63Q280.59-14.32 280.59-12.64Z M326.23-9.82L326.23-9.82Q326.23-7.85 327.97-7.85L327.97-7.85Q329.71-7.85 333.98-11.19L333.98-11.19L335.70-12.60Q337.40-14.00 338.95-14.00L338.95-14.00Q339.51-14.00 339.69-13.70Q339.86-13.40 339.86-12.94Q339.86-12.48 339.70-11.98Q339.53-11.48 339.24-10.94L339.24-10.94Q338.59-9.71 337.99-9.02Q337.38-8.34 336.57-7.61Q335.76-6.88 334.65-5.97Q333.54-5.06 332.19-4.11Q330.84-3.16 329.47-2.38L329.47-2.38Q326.39-0.59 324.39-0.59L324.39-0.59Q322.01-0.59 320.66-2.27L320.66-2.27Q319.39-3.83 319.24-6.45L319.24-6.45Q315.72-2.83 311.80-0.88L311.80-0.88Q309.39 0.31 307.73 0.31Q306.07 0.31 304.82-0.09Q303.57-0.49 302.64-1.29L302.64-1.29Q300.61-2.99 300.61-6.02L300.61-6.02Q300.61-10.35 303.71-14.38L303.71-14.38Q304.69-15.63 305.90-16.56L305.90-16.56Q308.52-18.20 311.45-18.20L311.45-18.20Q312.73-18.20 313.28-17.40L313.28-17.40Q313.50-17.09 313.50-16.59Q313.50-16.09 313.21-15.44Q312.93-14.79 312.52-14.07Q312.11-13.36 311.61-12.60Q311.11-11.84 310.70-11.11L310.70-11.11Q309.73-9.39 309.73-8.64Q309.73-7.89 310.16-7.54Q310.59-7.19 311.21-7.19L311.21-7.19Q312.60-7.19 313.57-7.86Q314.55-8.54 315.51-9.41L315.51-9.41L317.34-11.21L319.12-13.05Q321.02-14.98 322.00-15.46Q322.99-15.94 323.44-15.82Q323.89-15.70 324.36-15.40Q324.82-15.10 325.27-14.67L325.27-14.67Q326.33-13.65 326.45-12.83L326.45-12.83Q326.48-12.30 326.36-11.26Q326.23-10.21 326.23-9.82Z M353.18 0.94L353.18 0.94Q349.18 0.94 345.29-4.18L345.29-4.18L343.03-2.50Q339.41 0.08 338.22 0.08L338.22 0.08Q336.88 0.08 335.72-0.94L335.72-0.94Q335.39-1.23 335.23-1.56L335.23-1.56Q334.51-2.29 334.51-5.34Q334.51-8.40 335.20-11.07Q335.88-13.75 336.97-16.04L336.97-16.04Q338.69-19.63 342.30-23.93L342.30-23.93Q344.34-26.86 347.29-28.73L347.29-28.73Q349.79-30.31 351.46-30.31L351.46-30.31Q352.38-30.31 353.02-29.90Q353.65-29.49 353.65-28.79Q353.65-28.09 353.11-27.25L353.11-27.25Q346.68-17.87 345.68-16.31Q344.69-14.75 344.28-13.91Q343.87-13.07 343.67-12.63Q343.48-12.19 343.30-11.72L343.30-11.72Q342.89-10.63 342.89-10.14Q342.89-9.65 343.63-9.65L343.63-9.65Q344.32-9.65 347.21-13.18L347.21-13.18L349.82-16.43Q351.27-18.24 352.82-18.93Q354.38-19.61 355.53-19.61L355.53-19.61Q358.79-19.61 358.79-18.03L358.79-18.03Q358.79-16.60 356.62-14.02L356.62-14.02Q356.39-13.75 355.92-13.28L355.92-13.28L353.30-10.86L351.56-9.32Q353.40-7.17 355.18-6.29L355.18-6.29Q355.59-6.09 355.87-6.09Q356.15-6.09 356.89-6.46Q357.64-6.82 358.56-7.39Q359.49-7.97 360.53-8.69L360.53-8.69L365.88-12.60Q366.58-13.14 367.29-13.14L367.29-13.14Q368.75-13.14 368.75-11.93L368.75-11.93Q368.75-10.35 367.21-8.24L367.21-8.24Q366.74-7.62 366.31-7.19L366.31-7.19L365.06-6.05Q359.82-1.19 355.57 0.43L355.57 0.43Q354.28 0.94 353.18 0.94Z M373.61-12.64L373.61-12.64Q373.61-11.93 374.14-11.93L374.14-11.93Q374.79-11.93 375.80-12.79L375.80-12.79L377.50-14.26Q380.20-16.58 382.64-16.58L382.64-16.58Q384.22-16.58 385.45-13.95L385.45-13.95Q386.52-11.68 387.38-7.19L387.38-7.19Q387.54-6.45 387.65-6.45Q387.75-6.45 388.21-6.80Q388.67-7.15 389.34-7.70L389.34-7.70Q394.12-11.78 394.87-12.26Q395.63-12.73 395.92-12.90Q396.21-13.07 396.52-13.20L396.52-13.20Q397.30-13.50 397.75-13.50L397.75-13.50Q398.61-13.50 398.61-12.60L398.61-12.60Q398.61-11.23 396.82-8.61L396.82-8.61Q394.80-5.68 391.48-2.77L391.48-2.77Q387.62 0.64 384.73 0.64L384.73 0.64Q381.68 0.64 380.63-3.46L380.63-3.46Q380.35-4.51 380.20-5.43L380.20-5.43L379.90-6.95Q379.79-7.56 379.60-7.56Q379.41-7.56 378.83-6.97L378.83-6.97L377.38-5.51Q374.96-3.05 373.32-1.91L373.32-1.91Q370.02 0.39 367.54 0.39L367.54 0.39Q364.57 0.39 364.04-2.62L364.04-2.62Q363.89-3.52 363.89-4.89Q363.89-6.27 364.28-8.26Q364.67-10.25 365.35-12.25L365.35-12.25Q366.84-16.50 369.04-19.51L369.04-19.51L370.78-21.82Q377.09-30.06 381.33-30.06L381.33-30.06Q382.29-30.06 382.71-29.12L382.71-29.12Q382.85-28.83 382.85-28.24Q382.85-27.66 382.34-26.73Q381.84-25.80 381.09-24.80Q380.35-23.81 379.50-22.78Q378.65-21.76 377.95-20.76L377.95-20.76L376.48-18.63Q373.61-14.32 373.61-12.64Z M429.34-14.67L429.34-14.67Q429.96-14.67 429.96-13.61L429.96-13.61Q429.96-11.80 427.42-8.91L427.42-8.91L426.31-7.77Q421.25-2.71 416.78-1.04L416.78-1.04Q414.00 0 412.79-1.13L412.79-1.13Q411.80-2.09 411.21-4.22L411.21-4.22L410.74-5.92L406.58-3.36L404.18-1.99Q399.88 0.35 397.73 0.35L397.73 0.35Q394.98 0.35 393.14-1.78L393.14-1.78Q391.39-3.79 391.39-6.45L391.39-6.45Q391.39-9.06 393.48-11.11L393.48-11.11Q396.46-14.04 402.91-16.48L402.91-16.48Q409.00-18.77 412.75-18.77L412.75-18.77Q414.02-18.77 414.02-17.52L414.02-17.52Q414.02-16.66 413.69-16.23Q413.36-15.80 412.32-15.35L412.32-15.35L409.86-14.30Q404.39-12.01 401.86-9.55L401.86-9.55Q401.13-8.87 401.13-8.22Q401.13-7.58 402.17-7.58L402.17-7.58Q403.18-7.58 406.89-9.77L406.89-9.77L408.52-10.72Q412.29-12.99 414.82-12.99L414.82-12.99Q416.97-12.99 417.68-11.09L417.68-11.09Q417.85-10.59 418.01-10.07Q418.16-9.55 418.32-9.14L418.32-9.14Q418.67-8.18 418.96-8.18Q419.24-8.18 419.77-8.47Q420.29-8.75 420.93-9.19Q421.56-9.63 422.25-10.16L422.25-10.16L424.61-12.05Q427.75-14.67 429.34-14.67Z M447.03-10.49L447.03-10.49Q447.03-8.71 448.07-8.71L448.07-8.71Q450.61-8.71 454.67-12.15L454.67-12.15L455.20-12.60Q456.78-13.65 457.76-13.65Q458.75-13.65 459.01-13.36Q459.28-13.07 459.28-12.42L459.28-12.42Q459.28-10.98 457.81-9.36L457.81-9.36Q455.63-6.70 451.82-4.32L451.82-4.32Q447.40-1.54 443.91-1.54L443.91-1.54Q441.46-1.54 440.84-4.26L440.84-4.26Q440.66-4.96 440.59-5.61L440.59-5.61Q440.39-7.17 440.18-7.34Q439.96-7.52 439.33-7.31Q438.69-7.11 437.82-6.63Q436.95-6.15 435.90-5.47L435.90-5.47Q430.31-1.76 429.47-1.23L429.47-1.23Q427.46 0.02 426.76 0.02Q426.05 0.02 425.38-0.27Q424.71-0.57 424.20-1.02L424.20-1.02Q423.14-2.01 423.14-3.05L423.14-3.05Q423.14-8.96 425.72-13.40L425.72-13.40Q427.44-16.39 429.94-17.54L429.94-17.54Q431.21-18.14 432.68-18.14L432.68-18.14Q435.35-18.14 435.35-16.39L435.35-16.39Q435.35-15.31 434.08-12.87L434.08-12.87L433.50-11.72Q432.87-10.53 432.89-10.37L432.89-10.37Q433.01-9.79 433.42-9.79L433.42-9.79Q433.87-9.79 434.75-10.45L434.75-10.45L438.34-13.13L440.14-14.38Q443.24-16.41 444.71-16.41L444.71-16.41Q445.49-16.41 446.13-15.78L446.13-15.78Q447.32-14.65 447.32-13.81L447.32-13.81Q447.32-13.54 447.28-13.14Q447.23-12.75 447.17-12.30L447.17-12.30L447.09-11.39Q447.03-10.92 447.03-10.49Z"/></g>
</svg>
</g></svg></svg>